<?xml version="1.0" standalone="no"?>
<!DOCTYPE svg PUBLIC "-//W3C//DTD SVG 20010904//EN"
 "http://www.w3.org/TR/2001/REC-SVG-20010904/DTD/svg10.dtd">
<svg version="1.0" xmlns="http://www.w3.org/2000/svg"
 width="1280.000000pt" height="1280.000000pt" viewBox="0 0 1280.000000 1280.000000"
 preserveAspectRatio="xMidYMid meet">
<g transform="translate(0.000000,1280.000000) scale(0.100000,-0.100000)"
fill="#000000" stroke="none">
<path d="M6210 12797 c-3 -3 -84 -10 -180 -17 -462 -30 -906 -101 -1302 -210
-1325 -363 -2473 -1120 -3337 -2200 -624 -781 -1072 -1754 -1265 -2745 -75
-387 -133 -1003 -123 -1300 35 -1042 251 -1924 683 -2787 1000 -1999 2999
-3344 5214 -3508 80 -6 192 -15 250 -20 134 -13 366 -13 500 0 58 5 170 14
250 20 1726 128 3340 973 4451 2330 823 1005 1324 2254 1419 3535 6 83 15 200
20 261 6 60 10 170 10 244 0 74 -4 184 -10 244 -5 61 -14 179 -20 261 -85
1140 -492 2262 -1165 3204 -405 568 -928 1090 -1496 1496 -790 564 -1708 944
-2659 1100 -174 28 -442 59 -660 76 -164 12 -572 24 -580 16z m440 -567 c576
-28 1070 -119 1595 -295 702 -235 1328 -586 1910 -1071 156 -130 467 -434 611
-596 806 -912 1299 -2021 1433 -3223 89 -793 12 -1610 -224 -2369 -230 -740
-596 -1411 -1111 -2031 -139 -167 -542 -570 -709 -709 -971 -805 -2069 -1253
-3330 -1357 -193 -16 -657 -16 -850 0 -1261 104 -2363 553 -3330 1357 -168
139 -571 542 -709 709 -615 742 -1016 1546 -1226 2458 -215 937 -192 1930 66
2857 334 1195 1033 2243 2022 3028 1078 856 2479 1307 3852 1242z"/>
<path d="M5025 9209 c-334 -221 -757 -315 -1165 -258 -229 32 -509 138 -687
260 -23 16 -48 29 -55 29 -12 -1 -323 -422 -323 -438 0 -16 180 -127 310 -191
232 -115 461 -184 716 -217 182 -23 504 -16 669 15 227 42 424 109 625 211
157 79 297 170 291 187 -5 12 -290 408 -310 430 -8 9 -25 2 -71 -28z"/>
<path d="M7485 9032 c-87 -119 -159 -221 -161 -227 -11 -28 338 -221 521 -288
258 -93 442 -127 726 -134 396 -10 709 58 1054 228 144 71 311 176 308 194 -4
21 -309 434 -320 435 -7 0 -43 -20 -80 -44 -418 -269 -958 -335 -1436 -176
-113 38 -273 113 -364 172 -37 24 -73 47 -79 51 -7 4 -73 -78 -169 -211z"/>
<path d="M8496 8204 c-227 -55 -389 -268 -389 -514 0 -248 165 -467 393 -519
66 -15 187 -13 255 4 178 47 334 201 381 379 19 70 18 210 -2 277 -80 273
-365 439 -638 373z"/>
<path d="M4013 8200 c-197 -35 -358 -182 -417 -379 -20 -67 -21 -207 -2 -277
34 -130 137 -260 251 -321 86 -45 157 -63 250 -63 150 0 271 49 373 152 104
103 156 230 154 378 -1 183 -90 341 -247 439 -96 60 -250 90 -362 71z"/>
<path d="M6100 5224 c-391 -26 -638 -54 -908 -103 -412 -76 -820 -190 -1214
-341 -109 -41 -137 -56 -141 -73 -6 -23 -9 -242 -8 -501 1 -146 2 -158 19
-153 9 3 96 35 192 72 433 165 925 289 1420 359 351 50 506 60 940 60 505 0
810 -27 1249 -110 399 -75 885 -215 1220 -350 47 -19 89 -34 94 -34 9 0 6 665
-4 674 -12 13 -364 140 -528 192 -475 150 -940 242 -1461 290 -154 14 -746 26
-870 18z"/>
</g>
</svg>
